 <svg fill="none"><path d="M6.22 11.03a.75.75 0 1 0 1.06-1.06l-1.06 1.06ZM3 6.75l-.53-.53a.75.75 0 0 0 0 1.06L3 6.75Zm4.28-3.22a.75.75 0 0 0-1.06-1.06l1.06 1.06ZM13.5 18a.75.75 0 0 0 0 1.5V18ZM7.28 9.97 3.53 6.22 2.47 7.28l3.75 3.75 1.06-1.06ZM3.53 7.28l3.75-3.75-1.06-1.06-3.75 3.75 1.06 1.06Zm16.72 5.47c0 2.9-2.35 5.25-5.25 5.25v1.5a6.75 6.75 0 0 0 6.75-6.75h-1.5ZM15 7.5c2.9 0 5.25 2.35 5.25 5.25h1.5A6.75 6.75 0 0 0 15 6v1.5ZM15 6H3v1.5h12V6Zm0 12h-1.5v1.5H15V18Z" fill="#fff"></path><path d="M3 15.75h.75V21" stroke="#fff" stroke-width="1.5" stroke-linecap="round" stroke-linejoin="round"></path><path d="M9 16.5A.75.75 0 0 0 9 15v1.5Zm-2.25-.75V15a.75.75 0 0 0-.75.75h.75Zm0 2.25H6c0 .414.336.75.75.75V18Zm0 2.25a.75.75 0 0 0 0 1.5v-1.5ZM9 15H6.75v1.5H9V15Zm-3 .75V18h1.5v-2.25H6Zm.75 3h1.5v-1.5h-1.5v1.5Zm1.5 1.5h-1.5v1.5h1.5v-1.5ZM9 19.5a.75.75 0 0 1-.75.75v1.5a2.25 2.25 0 0 0 2.25-2.25H9Zm-.75-.75a.75.75 0 0 1 .75.75h1.5a2.25 2.25 0 0 0-2.25-2.25v1.5Z" fill="#fff"></path></svg>
                  