   <svg fill="none"><path d="M16.72 9.97a.75.75 0 1 0 1.06 1.06l-1.06-1.06ZM21 6.75l.53.53a.75.75 0 0 0 0-1.06l-.53.53Zm-3.22-4.28a.75.75 0 1 0-1.06 1.06l1.06-1.06ZM10.5 19.5a.75.75 0 0 0 0-1.5v1.5Zm3.75-4.5a.75.75 0 0 0 0 1.5V15Zm.75.75h.75A.75.75 0 0 0 15 15v.75ZM14.25 21a.75.75 0 0 0 1.5 0h-1.5Zm6-4.5a.75.75 0 0 0 0-1.5v1.5ZM18 15.75V15a.75.75 0 0 0-.75.75H18ZM18 18h-.75c0 .414.336.75.75.75V18Zm0 2.25a.75.75 0 0 0 0 1.5v-1.5Zm-.22-9.22 3.75-3.75-1.06-1.06-3.75 3.75 1.06 1.06Zm3.75-4.81-3.75-3.75-1.06 1.06 3.75 3.75 1.06-1.06ZM2.25 12.75A6.75 6.75 0 0 0 9 19.5V18a5.25 5.25 0 0 1-5.25-5.25h-1.5ZM9 6a6.75 6.75 0 0 0-6.75 6.75h1.5C3.75 9.85 6.1 7.5 9 7.5V6Zm0 1.5h12V6H9v1.5Zm0 12h1.5V18H9v1.5Zm5.25-3H15V15h-.75v1.5Zm0-.75V21h1.5v-5.25h-1.5Zm6-.75H18v1.5h2.25V15Zm-3 .75V18h1.5v-2.25h-1.5Zm.75 3h1.5v-1.5H18v1.5Zm1.5 1.5H18v1.5h1.5v-1.5Zm.75-.75a.75.75 0 0 1-.75.75v1.5a2.25 2.25 0 0 0 2.25-2.25h-1.5Zm-.75-.75a.75.75 0 0 1 .75.75h1.5a2.25 2.25 0 0 0-2.25-2.25v1.5Z" fill="#fff"></path></svg>