<svg xmlns="http://www.w3.org/2000/svg" xmlns:xlink="http://www.w3.org/1999/xlink" version="1.1" x="0px" y="0px" viewBox="0 0 100 125" style="enable-background:new 0 0 100 100;" xml:space="preserve"><style type="text/css">
	.st0{fill:none;stroke:#231F20;stroke-width:4;stroke-linecap:round;stroke-miterlimit:10;}
	.st1{fill:none;stroke:#231F20;stroke-width:4;stroke-miterlimit:10;}
</style><g><path d="M50,9C27.4,9,9,27.4,9,50s18.4,41,41,41s41-18.4,41-41S72.6,9,50,9z M50,87c-20.4,0-37-16.6-37-37s16.6-37,37-37   s37,16.6,37,37S70.4,87,50,87z"/><path d="M52,21c-1.1,0-2,0.9-2,2v26.8l-17,9.4c-1,0.5-1.3,1.8-0.8,2.7c0.4,0.7,1,1,1.8,1c0.3,0,0.7-0.1,1-0.3l19-10.6V23   C54,21.9,53.1,21,52,21z"/></g><text x="0" y="115" fill="#000000" font-size="5px" font-weight="bold" font-family="'Helvetica Neue', Helvetica, Arial-Unicode, Arial, Sans-serif">Created by Icon Depot</text><text x="0" y="120" fill="#000000" font-size="5px" font-weight="bold" font-family="'Helvetica Neue', Helvetica, Arial-Unicode, Arial, Sans-serif">from the Noun Project</text></svg>